<svg version="1.1" xmlns="http://www.w3.org/2000/svg" viewBox="-340.88582777165357 -173.85826871653543 706.7716555433071 347.71653743307087" fill="none" stroke="black" stroke-width="0.6%" vector-effect="non-scaling-stroke">
    <path d="M -318.20866 170.07874 A 18.897637795275593 18.897637795275593 0 0 1 -318.20866 132.28346 L 135.33465 132.28346 A 18.897637795275593 18.897637795275593 0 0 0 154.23228 113.38583" />
    <path d="M 248.72047 170.07874 L -318.20866 170.07874" />
    <path d="M 248.72047 170.07874 L 248.72047 28.34646" />
    <path d="M 362.1063 28.34646 L 248.72047 28.34646" />
    <path d="M 362.1063 -28.34646 L 362.1063 28.34646" />
    <path d="M 248.72047 -28.34646 L 362.1063 -28.34646" />
    <path d="M 248.72047 -28.34646 L 248.72047 -170.07874" />
    <path d="M -318.20866 -170.07874 L 248.72047 -170.07874" />
    <path d="M -318.20866 -132.28346 A 18.897637795275593 18.897637795275593 0 0 1 -318.20866 -170.07874" />
    <path d="M 135.33465 -132.28346 L -318.20866 -132.28346" />
    <path d="M 154.23228 -113.38583 A 18.897637795275593 18.897637795275593 0 0 0 135.33465 -132.28346" />
    <path d="M 154.23228 -113.38583 L 154.23228 -37.79528" />
    <path d="M 135.33465 -18.89764 A 18.897637795275593 18.897637795275593 0 0 0 154.23228 -37.79528" />
    <path d="M -318.20866 -18.89764 L 135.33465 -18.89764" />
    <path d="M -318.20866 18.89764 A 18.897637795275593 18.897637795275593 0 0 1 -318.20866 -18.89764" />
    <path d="M 135.33465 18.89764 L -318.20866 18.89764" />
    <path d="M 154.23228 37.79528 A 18.897637795275593 18.897637795275593 0 0 0 135.33465 18.89764" />
    <path d="M 154.23228 37.79528 L 154.23228 113.38583" />
</svg>