<svg version="1.1" xmlns="http://www.w3.org/2000/svg" viewBox="-79.28338756600299 -14.315648568871937 162.000002 30.032262325677763" fill="none" stroke="black" stroke-width="0.6%" vector-effect="non-scaling-stroke">
    <path d="M 36.73035 14.0999 L 36.73035 9.11453 A 80 6.1142 0 0 1 -78.28339 3.61704 A 80 6.1142 0 0 1 -63.28339 0.0527" />
    <path d="M 66.71661 0.0527 A 80 6.1142 0 0 1 81.71661 3.61704 A 80 6.1142 0 0 1 74.67607 6.12512 A 31 2.36925 180 0 0 57.79911 6.12842 A 65 4.96779 180 0 0 66.71661 3.61704" />
    <path d="M 74.67607 11.11049 L 74.67607 6.12512" />
    <path d="M 74.67607 11.11049 A 80 6.1142 180 0 0 81.71661 8.60242" />
    <path d="M -78.28339 8.60242 A 80 6.1142 180 0 0 36.73035 14.0999" />
    <path d="M 36.26173 7.82516 A 31 2.36925 180 0 0 35.31391 8.40654 A 31 2.36925 180 0 0 36.73035 9.11453" />
    <path d="M 36.73035 12.68393 A 31 2.36925 360 0 1 74.67607 11.11049" />
    <path d="M -63.28339 3.61704 A 65 4.96779 180 0 0 36.26173 7.82516 A 65 4.96779 180 0 0 57.79911 6.12842" />
    <path d="M 28.86428 8.9671 L 31.69113 9.12483 L 34.89179 9.01659 L 35.2656 8.75062 L 32.43876 8.59289 L 29.2381 8.70113 L 28.86428 8.9671 Z" />
    <path d="M -53.01824 7.54495 L -53.87274 7.80436 L -51.36062 7.99061 L -47.99401 7.91747 L -47.13951 7.65807 L -49.65163 7.47181 L -53.01824 7.54495 Z" />
    <path d="M -72.26874 2.64003 L -75.49363 2.74398 L -75.92812 3.00941 L -73.13772 3.17088 L -69.91283 3.06693 L -69.47834 2.8015 L -72.26874 2.64003 Z" />
    <path d="M 69.87236 6.02426 L 73.3394 5.98763 L 74.65795 5.73985 L 72.50946 5.52868 L 69.04241 5.5653 L 67.72386 5.81309 L 69.87236 6.02426 Z" />
    <path d="M -44.93699 -11.80695 A 65 4.96779 360 0 1 66.71661 -8.34786 L 66.71661 3.61704" />
    <path d="M 66.71661 -8.34786 A 65 4.96779 360 0 1 -63.28339 -8.34786 L -63.28339 3.61704" />
    <path d="M -63.28339 -8.34786 A 65 4.96779 360 0 1 -44.93699 -11.80695" />
    <path d="M 29.2381 8.98796 L 29.2381 8.70113" />
    <path d="M 32.43876 9.09954 L 32.43876 8.59289" />
    <path d="M -53.01824 7.86771 L -53.01824 7.54495" />
    <path d="M -49.65163 7.95348 L -49.65163 7.47181" />
    <path d="M -75.49363 3.03455 L -75.49363 2.74398" />
    <path d="M -72.26874 3.14287 L -72.26874 2.64003" />
    <path d="M 69.04241 5.94268 L 69.04241 5.5653" />
    <path d="M 72.50946 5.9964 L 72.50946 5.52868" />
    <path d="M 41.19274 -5.42094 A 55 4.20351 360 0 1 -53.28339 -8.34786 A 55 4.20351 360 1 1 56.71661 -8.34786 A 55 4.20351 360 0 1 41.19274 -5.42094 Z" />
    <path d="M 24.39495 -4.10029 A 1.75 0.13375 360 0 1 24.24528 -4.15441 A 1.75 0.13375 360 1 1 27.74528 -4.15441 A 1.75 0.13375 360 0 1 24.39495 -4.10029 Z" />
    <path d="M -41.31764 -5.14965 A 1.75 0.13375 360 0 1 -38.31158 -5.05652 A 1.75 0.13375 360 1 1 -41.81158 -5.05652 A 1.75 0.13375 360 0 1 -41.31764 -5.14965 Z" />
    <path d="M -57.60201 -9.04984 A 1.75 0.13375 0 0 1 -56.06926 -8.91713 A 1.75 0.13375 0 0 1 -59.56926 -8.91713 A 1.75 0.13375 0 0 1 -57.60201 -9.04984 Z" />
    <path d="M 56.63677 -6.49643 A 1.75 0.13375 360 0 1 55.54605 -6.62032 A 1.75 0.13375 360 1 1 59.04605 -6.62032 A 1.75 0.13375 360 0 1 56.63677 -6.49643 Z" />
    <path d="M 44.75086 -11.54607 A 1.75 0.13375 360 0 1 41.7448 -11.6392 A 1.75 0.13375 360 1 1 45.2448 -11.6392 A 1.75 0.13375 360 0 1 44.75086 -11.54607 Z" />
    <path d="M -5.8047 -12.8993 A 1.75 0.13375 360 0 1 -5.78378 -12.87868 A 1.75 0.13375 360 0 1 -9.28378 -12.87868 A 1.75 0.13375 360 0 1 -5.8047 -12.8993 Z" />
    <path d="M -78.28339 3.61704 L -78.28339 8.60242" />
    <path d="M 81.71661 3.61704 L 81.71661 8.60242" />
</svg>