<svg version="1.1" xmlns="http://www.w3.org/2000/svg" viewBox="-69.35846135828785 -14.820116689853034 160.18650388017204 31.652837639724748" fill="none" stroke="black" stroke-width="0.6%" vector-effect="non-scaling-stroke">
    <path d="M 89.82804 7.85578 L 26.57136 14.2623" />
    <path d="M 26.57136 12.26908 L 26.57136 14.2623" />
    <path d="M 26.57136 12.26908 L 25.56316 12.37119" />
    <path d="M 25.56316 14.3644 L 25.56316 12.37119" />
    <path d="M 25.56316 14.3644 L 11.0653 15.83272 L 11.0653 10.84968 A 80 6.58332 0 0 1 -68.35846 4.26653 L -68.35846 9.24957 A 80 6.58332 180 0 0 11.0653 15.83272" />
    <path d="M 89.82804 2.87274 L 50.44667 6.86121 A 65 5.34895 180 0 0 65 3.48813" />
    <path d="M 50.44667 6.86121 L 11.0653 10.84968" />
    <path d="M 89.82804 7.85578 L 89.82804 2.87274" />
    <path d="M 26.57136 14.02567 L 25.56316 13.95825" />
    <path d="M -68.35846 4.26653 A 80 6.58332 0 0 1 -65 2.37907" />
    <path d="M 65 -0.63853 A 80 6.58332 0 0 1 89.82804 2.87274" />
    <path d="M -65 3.48813 A 65 5.34895 180 0 0 50.44667 6.86121" />
    <path d="M 22.07429 9.22402 A 1.75 0.14401 0 0 1 21.95909 9.17263 A 1.75 0.14401 0 0 1 25.45909 9.17263 A 1.75 0.14401 0 0 1 22.07429 9.22402 Z" />
    <path d="M 42.68565 -5.61703 A 55 4.52603 180 0 0 55 -8.47117 A 55 4.52603 180 1 0 -55 -8.47117 A 55 4.52603 180 0 0 42.68565 -5.61703 Z" />
    <path d="M -50.44667 -11.84425 A 65 5.34895 0 0 1 65 -8.47117 L 65 3.48813" />
    <path d="M 65 -8.47117 A 65 5.34895 0 1 1 -65 -8.47117 L -65 3.48813" />
    <path d="M -65 -8.47117 A 65 5.34895 0 0 1 -50.44667 -11.84425" />
</svg>