<svg version="1.1" xmlns="http://www.w3.org/2000/svg" viewBox="-69.35846135828785 -14.820116689853032 160.18650388017204 31.652837639724744" fill="none" stroke="black" stroke-width="0.6%" vector-effect="non-scaling-stroke">
    <path d="M 89.82804 7.85578 L 29.43174 13.9726 L 27.57872 13.88064 L 25.57132 13.97185" />
    <path d="M 29.43174 11.97939 L 29.43174 13.9726" />
    <path d="M 29.43174 11.97939 L 28.60612 12.063 A 1.75 0.14401 180 0 0 26.39905 12.06424" />
    <path d="M 28.60612 9.07318 L 28.60612 12.063" />
    <path d="M 89.82804 2.87274 L 50.44667 6.86121 L 28.60612 9.07318 A 1.75 0.14401 180 0 0 25.76185 9.18556 A 1.75 0.14401 180 0 0 26.39905 9.29671 L 11.0653 10.84968 A 80 6.58332 0 0 1 -68.35846 4.26653 L -68.35846 9.24957 A 80 6.58332 180 0 0 11.0653 15.83272 L 11.0653 10.84968" />
    <path d="M 89.82804 7.85578 L 89.82804 2.87274" />
    <path d="M 25.57132 14.36358 L 11.0653 15.83272" />
    <path d="M 27.57872 13.88064 L 27.57872 12.03148" />
    <path d="M 26.39905 12.28653 L 25.57132 12.37036" />
    <path d="M 26.39905 9.29671 L 26.39905 12.28653" />
    <path d="M 50.44667 6.86121 A 65 5.34895 180 0 0 65 3.48813" />
    <path d="M 65 -0.63853 A 80 6.58332 0 0 1 89.82804 2.87274" />
    <path d="M -64.27367 4.28553 A 65 5.34895 180 0 0 50.44667 6.86121" />
    <path d="M -66.40137 4.17572 L -64.27367 4.28553" />
    <path d="M -66.27343 3.88789 L -66.40137 4.17572" />
    <path d="M -64.86965 3.82671 L -66.27343 3.88789" />
    <path d="M -65 3.48813 A 65 5.34895 180 0 0 -64.86965 3.82671" />
    <path d="M -68.35846 4.26653 A 80 6.58332 0 0 1 -65 2.37907" />
    <path d="M -38.37031 8.8749 L -38.92356 9.1593 L -36.2072 9.34093 L -32.9376 9.23816 L -32.38435 8.95376 L -35.10071 8.77213 L -38.37031 8.8749 Z" />
    <path d="M 25.57132 14.36358 L 25.57132 12.37036" />
    <path d="M 13.21887 -12.86453 L 13.21887 -4.07781" />
    <path d="M 10.91399 -12.9072 A 55 4.52603 180 0 0 -55 -8.47117 A 55 4.52603 180 1 0 55 -8.47117 A 55 4.52603 180 0 0 13.21887 -12.86453" />
    <path d="M 10.91399 -4.03515 L 10.91399 -12.9072 A 1.75 0.14401 0 0 1 13.21887 -12.86453" />
    <path d="M -9.24956 -13.76568 L -9.24956 -13.56924" />
    <path d="M -64.86965 -8.13259 A 65 5.34895 0 0 1 -65 -8.47117 L -65 3.48813" />
    <path d="M -65 -8.47117 A 65 5.34895 0 0 1 -9.24956 -13.76568 L -9.77949 -13.61455 L -7.35236 -13.40703 L -3.95492 -13.47625 L -2.98462 -13.75298 L -3.67009 -13.81158 A 65 5.34895 0 0 1 65 -8.47117 L 65 3.48813" />
    <path d="M -64.86965 -8.13259 L -64.86965 3.82671" />
    <path d="M -3.67009 -13.81158 L -3.67009 -13.55748" />
    <path d="M -64.27367 -7.67377 L -64.27367 4.28553" />
    <path d="M 65 -8.47117 A 65 5.34895 0 0 1 -64.27367 -7.67377 L -63.43628 -7.63055 L -60.34324 -7.76535 L -60.2153 -8.05317 L -63.18039 -8.2062 L -64.86965 -8.13259" />
    <path d="M -66.27343 4.18232 L -66.27343 3.88789" />
    <path d="M -63.18039 -7.6417 L -63.18039 -8.2062" />
    <path d="M -38.37031 9.19629 L -38.37031 8.8749" />
    <path d="M -35.10071 9.30615 L -35.10071 8.77213" />
    <path d="M -39.19458 -4.72999 A 1.75 0.14401 360 0 1 -36.0864 -4.63917 A 1.75 0.14401 360 0 1 -39.5864 -4.63917 A 1.75 0.14401 360 0 1 -39.19458 -4.72999 Z" />
</svg>