<svg version="1.1" xmlns="http://www.w3.org/2000/svg" viewBox="-89.04081282725215 -14.890860952488039 160.48762297812038 30.215025709540996" fill="none" stroke="black" stroke-width="0.6%" vector-effect="non-scaling-stroke">
    <path d="M -74.55124 2.87357 L -74.55124 2.7916 A 65 5.28787 180 0 0 -74.55319 2.83259 A 65 5.28787 180 0 0 -47.52711 7.12422 A 65 5.28787 180 0 0 63.08936 3.35724" />
    <path d="M 63.08936 0.10632 A 80 6.50815 0 0 1 70.44681 2.83259 A 80 6.50815 0 0 1 -88.04081 4.09208 L -74.55124 2.7916" />
    <path d="M -88.04081 9.07551 L -88.04081 4.09208" />
    <path d="M -88.04081 9.07551 A 80 6.50815 180 0 0 70.44681 7.81601" />
    <path d="M -66.91064 3.35724 A 65 5.28787 180 0 0 -47.52711 7.12422" />
    <path d="M -51.58723 -12.01321 A 65 5.28787 0 0 1 63.08936 -8.60299 L 63.08936 3.35724" />
    <path d="M 63.08936 -8.60299 A 65 5.28787 0 1 1 -66.91064 -8.60299 L -66.91064 3.35724" />
    <path d="M -66.91064 -8.60299 A 65 5.28787 0 0 1 -51.58723 -12.01321" />
    <path d="M 40.1234 -5.71742 A 55 4.47435 180 0 0 53.08936 -8.60299 A 55 4.47435 180 0 0 -56.91064 -8.60299 A 55 4.47435 180 0 0 40.1234 -5.71742 Z" />
    <path d="M 70.44681 2.83259 L 70.44681 7.81601" />
</svg>