<svg version="1.1" xmlns="http://www.w3.org/2000/svg" viewBox="-81.00000100000001 -14.516451910777844 162.000002 30.19645666382165" fill="none" stroke="black" stroke-width="0.6%" vector-effect="non-scaling-stroke">
    <path d="M 73.46325 10.93123 L 73.46325 5.9463 A 31 2.40468 180 0 0 56.58903 5.9701 A 65 5.04206 180 0 0 65 3.48945" />
    <path d="M 80 8.47439 A 80 6.20562 360 0 1 73.46325 10.93123" />
    <path d="M 65 -0.12818 A 80 6.20562 360 0 1 80 3.48945 A 80 6.20562 360 0 1 73.46325 5.9463" />
    <path d="M -73.46325 1.03261 A 31 2.40468 180 0 0 -65 1.11149" />
    <path d="M 35.40112 7.7181 A 31 2.40468 180 0 0 34.56848 8.27169 A 31 2.40468 180 0 0 36.13325 9.02603 A 80 6.20562 360 0 1 -80 3.48945 A 80 6.20562 360 0 1 -73.46325 1.03261" />
    <path d="M 36.13325 14.01096 L 36.13325 9.02603" />
    <path d="M 36.13325 12.50229 A 31 2.40468 360 0 1 73.46325 10.93123" />
    <path d="M 36.13325 14.01096 A 80 6.20562 360 0 1 -80 8.47439" />
    <path d="M 68.63951 5.84977 L 72.09864 5.8084 L 73.36638 5.55534 L 71.17498 5.34365 L 67.71584 5.38501 L 66.44811 5.63807 L 68.63951 5.84977 Z" />
    <path d="M -65 3.48945 A 65 5.04206 180 0 0 35.40112 7.7181 A 65 5.04206 180 0 0 56.58903 5.9701" />
    <path d="M 28.23801 8.88595 L 31.09675 9.04258 L 34.27489 8.92886 L 34.59429 8.6585 L 31.73555 8.50186 L 28.55741 8.61558 L 28.23801 8.88595 Z" />
    <path d="M -53.92524 7.54194 L -54.72661 7.80623 L -52.17672 7.9922 L -48.82547 7.9139 L -48.0241 7.64961 L -50.57398 7.46364 L -53.92524 7.54194 Z" />
    <path d="M -74.17604 2.58762 L -77.37928 2.69702 L -77.75947 2.96691 L -74.9364 3.1274 L -71.73316 3.01799 L -71.35298 2.7481 L -74.17604 2.58762 Z" />
    <path d="M 40.06963 -5.55191 A 55 4.26636 360 0 1 -55 -8.47439 A 55 4.26636 360 1 1 55 -8.47439 A 55 4.26636 360 0 1 40.06963 -5.55191 Z" />
    <path d="M -47.35501 -11.92822 A 65 5.04206 360 0 1 65 -8.47439 L 65 3.48945" />
    <path d="M 65 -8.47439 A 65 5.04206 360 0 1 -65 -8.47439 L -65 3.48945" />
    <path d="M -65 -8.47439 A 65 5.04206 360 0 1 -47.35501 -11.92822" />
    <path d="M 67.71584 5.76054 L 67.71584 5.38501" />
    <path d="M 71.17498 5.81945 L 71.17498 5.34365" />
    <path d="M 28.55741 8.90345 L 28.55741 8.61558" />
    <path d="M 31.73555 9.01972 L 31.73555 8.50186" />
    <path d="M -53.92524 7.86468 L -53.92524 7.54194" />
    <path d="M -50.57398 7.95475 L -50.57398 7.46364" />
    <path d="M -77.37928 2.98853 L -77.37928 2.69702" />
    <path d="M -74.17604 3.10143 L -74.17604 2.58762" />
    <path d="M 23.54385 -4.19131 A 1.75 0.13575 360 0 1 23.38292 -4.24818 A 1.75 0.13575 360 0 1 26.88292 -4.24818 A 1.75 0.13575 360 0 1 23.54385 -4.19131 Z" />
    <path d="M -42.37522 -5.1766 A 1.75 0.13575 360 0 1 -39.35028 -5.08362 A 1.75 0.13575 360 1 1 -42.85028 -5.08362 A 1.75 0.13575 360 0 1 -42.37522 -5.1766 Z" />
    <path d="M -59.45489 -9.11489 A 1.75 0.13575 360 0 1 -57.89498 -8.97995 A 1.75 0.13575 360 0 1 -61.39498 -8.97995 A 1.75 0.13575 360 0 1 -59.45489 -9.11489 Z" />
    <path d="M 55.29193 -6.66206 A 1.75 0.13575 360 0 1 54.17579 -6.78859 A 1.75 0.13575 360 0 1 57.67579 -6.78859 A 1.75 0.13575 360 0 1 55.29193 -6.66206 Z" />
    <path d="M 42.37522 -11.77217 A 1.75 0.13575 360 0 1 39.35028 -11.86516 A 1.75 0.13575 360 1 1 42.85028 -11.86516 A 1.75 0.13575 360 0 1 42.37522 -11.77217 Z" />
    <path d="M -8.45079 -13.0842 A 1.75 0.13575 360 0 1 -8.42544 -13.06118 A 1.75 0.13575 360 0 1 -11.92544 -13.06118 A 1.75 0.13575 360 0 1 -8.45079 -13.0842 Z" />
    <path d="M 80 3.48945 L 80 8.47439" />
    <path d="M -80 3.48945 L -80 8.47439" />
</svg>