<svg version="1.1" xmlns="http://www.w3.org/2000/svg" viewBox="-69.35846135828785 -14.820116689853032 160.18650388017204 31.652837639724744" fill="none" stroke="black" stroke-width="0.6%" vector-effect="non-scaling-stroke">
    <path d="M 89.82804 7.85578 L 89.82804 2.87274 L 50.44667 6.86121 L 11.0653 10.84968 A 80 6.58332 0 0 1 -68.35846 4.26653 A 80 6.58332 0 0 1 -65 2.37907" />
    <path d="M 11.0653 15.83272 L 11.0653 10.84968" />
    <path d="M 89.82804 7.85578 L 11.0653 15.83272" />
    <path d="M 65 -0.63853 A 80 6.58332 0 0 1 89.82804 2.87274" />
    <path d="M -68.35846 9.24957 A 80 6.58332 180 0 0 11.0653 15.83272" />
    <path d="M 50.44667 6.86121 A 65 5.34895 180 0 0 65 3.48813" />
    <path d="M -64.27367 4.28553 A 65 5.34895 180 0 0 50.44667 6.86121" />
    <path d="M -66.40137 4.17572 L -64.27367 4.28553" />
    <path d="M -66.27343 3.88789 L -66.40137 4.17572" />
    <path d="M -64.86965 3.82671 L -66.27343 3.88789" />
    <path d="M -65 3.48813 A 65 5.34895 180 0 0 -64.86965 3.82671" />
    <path d="M -38.37031 8.8749 L -38.92356 9.1593 L -36.2072 9.34093 L -32.9376 9.23816 L -32.38435 8.95376 L -35.10071 8.77213 L -38.37031 8.8749 Z" />
    <path d="M -9.24956 -13.76568 L -9.24956 -13.56924" />
    <path d="M -64.86965 -8.13259 A 65 5.34895 0 0 1 -65 -8.47117 L -65 3.48813" />
    <path d="M -65 -8.47117 A 65 5.34895 0 0 1 -9.24956 -13.76568 L -9.77949 -13.61455 L -7.35236 -13.40703 L -3.95492 -13.47625 L -2.98462 -13.75298 L -3.67009 -13.81158 A 65 5.34895 0 0 1 65 -8.47117 L 65 3.48813" />
    <path d="M -64.86965 -8.13259 L -64.86965 3.82671" />
    <path d="M -3.67009 -13.81158 L -3.67009 -13.55748" />
    <path d="M -64.27367 -7.67377 L -64.27367 4.28553" />
    <path d="M 65 -8.47117 A 65 5.34895 0 0 1 -64.27367 -7.67377 L -63.43628 -7.63055 L -60.34324 -7.76535 L -60.2153 -8.05317 L -63.18039 -8.2062 L -64.86965 -8.13259" />
    <path d="M -66.27343 4.18232 L -66.27343 3.88789" />
    <path d="M -63.18039 -7.6417 L -63.18039 -8.2062" />
    <path d="M -38.37031 9.19629 L -38.37031 8.8749" />
    <path d="M -35.10071 9.30615 L -35.10071 8.77213" />
    <path d="M 42.68565 -5.61703 A 55 4.52603 0 0 1 -55 -8.47117 A 55 4.52603 0 1 1 55 -8.47117 A 55 4.52603 0 0 1 42.68565 -5.61703 Z" />
    <path d="M -68.35846 4.26653 L -68.35846 9.24957" />
</svg>