<svg version="1.1" xmlns="http://www.w3.org/2000/svg" viewBox="-79.25961342536142 -15.238427787136407 162.00000200000002 30.791209577445535" fill="none" stroke="black" stroke-width="0.6%" vector-effect="non-scaling-stroke">
    <path d="M -77.18271 2.55706 A 65 4.82864 180 0 0 -76.80991 3.07347 A 65 4.82864 180 0 0 52.81729 2.55706" />
    <path d="M -78.01616 3.16037 L -76.80991 3.07347" />
    <path d="M 52.81729 -0.95036 A 80 5.94294 360 0 1 81.74039 3.62365 A 80 5.94294 360 1 1 -78.25961 3.62365 A 80 5.94294 360 0 1 -78.01616 3.16037" />
    <path d="M -78.25961 8.60984 A 80 5.94294 180 1 0 81.74039 8.60984" />
    <path d="M 26.10581 -6.47664 A 55 4.08577 180 0 0 42.81729 -9.40979 A 55 4.08577 180 0 0 -67.18271 -9.40979 A 55 4.08577 180 0 0 26.10581 -6.47664 Z" />
    <path d="M -57.43279 -12.87623 A 65 4.82864 360 0 1 52.81729 -9.40979 L 52.81729 2.55706" />
    <path d="M 52.81729 -9.40979 A 65 4.82864 360 0 1 -77.18271 -9.40979 L -77.18271 2.55706" />
    <path d="M -77.18271 -9.40979 A 65 4.82864 360 0 1 -57.43279 -12.87623" />
    <path d="M -78.25961 3.62365 L -78.25961 8.60984" />
    <path d="M 81.74039 3.62365 L 81.74039 8.60984" />
</svg>