<svg version="1.1" xmlns="http://www.w3.org/2000/svg" viewBox="-71.44681352425997 -14.628728775041587 160.48762945674002 31.262623378691913" fill="none" stroke="black" stroke-width="0.6%" vector-effect="non-scaling-stroke">
    <path d="M 20.98064 14.33337 L 20.98064 9.34994 L 7.49106 10.65047 A 80 6.5084 0 0 1 -70.44681 4.14424 A 80 6.5084 0 0 1 -63.08936 1.41786" />
    <path d="M 7.49106 15.63389 L 7.49106 10.65047" />
    <path d="M 20.98064 14.33337 L 7.49106 15.63389" />
    <path d="M 74.55123 9.16865 L 74.55123 4.18522 A 65 5.28807 180 0 0 74.55319 4.14424 A 65 5.28807 180 0 0 66.91064 1.65642" />
    <path d="M -36.0633 7.91136 A 65 5.28807 180 0 0 20.98064 9.34994" />
    <path d="M 60.73979 5.86845 A 65 5.28807 0 0 1 74.55123 9.08667" />
    <path d="M 66.91064 -0.39281 A 80 6.5084 0 0 1 88.04081 2.8847 L 74.55123 4.18522" />
    <path d="M 88.04081 7.86812 L 88.04081 2.8847" />
    <path d="M -70.44681 9.12766 A 80 6.5084 180 0 0 7.49106 15.63389" />
    <path d="M 88.04081 7.86812 L 74.55123 9.16865" />
    <path d="M -62.93349 3.98556 A 65 5.28807 180 0 0 -36.0633 7.91136 A 65 5.28807 180 0 0 66.91064 3.61957" />
    <path d="M -65.52572 4.09228 L -62.93349 3.98556" />
    <path d="M -68.45576 3.93653 L -65.52572 4.09228" />
    <path d="M -68.26287 3.65222 L -68.45576 3.93653" />
    <path d="M -65.13994 3.52366 L -68.26287 3.65222" />
    <path d="M -63.08916 3.63267 L -65.13994 3.52366" />
    <path d="M -63.08916 3.60647 A 65 5.28807 180 0 0 -63.08936 3.61957 A 65 5.28807 180 0 0 -63.08916 3.63267" />
    <path d="M -41.49027 8.62379 L -42.10761 8.90407 L -39.43272 9.08771 L -36.14048 8.99106 L -35.52314 8.71079 L -38.19803 8.52715 L -41.49027 8.62379 Z" />
    <path d="M -62.93349 -7.97466 L -62.93349 3.98556" />
    <path d="M -4.55962 -13.60246 A 65 5.28807 0 0 1 66.91064 -8.34066 L 66.91064 3.61957" />
    <path d="M 66.91064 -8.34066 A 65 5.28807 0 0 1 -62.93349 -7.97466 L -62.40279 -7.99651 L -62.2099 -8.28082 L -63.08916 -8.32756 A 65 5.28807 0 0 1 -63.08936 -8.34066 L -63.08936 3.61957" />
    <path d="M -68.26287 3.94678 L -68.26287 3.65222" />
    <path d="M -65.13994 4.0764 L -65.13994 3.52366" />
    <path d="M -63.08916 -8.32756 L -63.08916 3.63267" />
    <path d="M -63.08936 -8.34066 A 65 5.28807 0 0 1 -8.86174 -13.5556 L -8.14757 -13.49295 L -4.7351 -13.55623 L -4.55962 -13.60246" />
    <path d="M -41.49027 8.94645 L -41.49027 8.62379" />
    <path d="M -38.19803 9.05146 L -38.19803 8.52715" />
    <path d="M 43.94466 -5.45497 A 55 4.47452 180 0 0 56.91064 -8.34066 A 55 4.47452 180 0 0 -53.08936 -8.34066 A 55 4.47452 180 0 0 43.94466 -5.45497 Z" />
    <path d="M -70.44681 4.14424 L -70.44681 9.12766" />
</svg>